<svg width="256" height="256" viewBox="0 0 256 256" fill="none" xmlns="http://www.w3.org/2000/svg">
<g clip-path="url(#clip0_164_128)">
<g filter="url(#filter0_d_164_128)">
<path d="M171.71 40.1211C181.111 35.1636 194.478 31.8935 207.479 39.5264L208.098 39.8975L209.15 40.5615C230.956 54.6787 234.233 79.8178 232.713 97.6875C231.897 107.278 229.657 116.527 226.837 124.382C224.126 131.932 220.393 139.551 215.808 145.111V145.112C213.031 148.48 209.758 151.227 206.36 153.479C211.525 160.76 215.164 171.08 211.645 182.923C208.272 194.27 199.465 202.722 189.524 209.239C179.082 216.085 168.455 220.077 157.815 220.238C147.18 220.399 138.158 216.7 131.089 211.091L130.411 210.542C129.626 209.894 128.871 209.225 128.142 208.539C127.375 209.253 126.58 209.95 125.754 210.623C118.547 216.49 109.269 220.403 98.2949 220.238C87.6351 220.078 76.9824 216.102 66.5146 209.239C56.5738 202.722 47.7668 194.27 44.3945 182.923C40.8753 171.081 44.5128 160.76 49.6777 153.479C46.28 151.227 43.0083 148.48 40.2314 145.112C35.6461 139.552 31.9123 131.933 29.2012 124.382C26.381 116.527 24.1408 107.278 23.3252 97.6875C21.7814 79.5339 25.1889 53.8785 47.9414 39.8975C61.1392 31.7879 74.8038 35.0939 84.3545 40.0977C93.7674 45.0293 102.341 53.0231 109.512 61.0215C116.196 68.4779 122.552 76.9594 128.202 85.3135C133.795 76.9843 140.082 68.5248 146.697 61.083C153.807 53.0846 162.326 45.0699 171.71 40.1211Z" fill="white" stroke="white" stroke-width="18" stroke-linejoin="round"/>
<path d="M177.123 48.9236C184.897 45.0623 194.305 43.4798 203.069 48.865C220.883 59.8113 224.229 80.1771 222.818 96.7654C222.091 105.312 220.081 113.64 217.538 120.723C215.047 127.662 211.817 134.035 208.287 138.316L208.288 138.317C203.946 143.582 197.674 147.088 191.829 149.474C190.899 149.854 189.956 150.211 189.009 150.552C189.289 150.755 189.567 150.96 189.843 151.167C194.271 154.496 198.636 158.853 201.098 164.37C203.74 170.291 203.907 176.978 200.682 183.613C197.664 189.824 191.995 195.351 184.251 200.427C168.921 210.478 155.064 212.296 143.499 206.813C136.796 203.635 131.82 198.423 128.182 192.811C124.484 198.438 119.437 203.653 112.674 206.826C101.058 212.276 87.1489 210.499 71.787 200.427C64.0429 195.351 58.374 189.824 55.3553 183.613C52.1308 176.978 52.2991 170.291 54.9413 164.37C57.4028 158.853 61.7675 154.496 66.1962 151.167C66.4714 150.96 66.749 150.755 67.0292 150.552C66.0818 150.211 65.1398 149.854 64.2098 149.474C58.3651 147.088 52.0925 143.582 47.7509 138.317C44.2204 134.036 40.9921 127.662 38.5009 120.723C35.9578 113.64 33.9474 105.312 33.2206 96.7654C31.8099 80.177 35.1559 59.8112 52.9696 48.865C61.7363 43.478 71.1681 45.0674 78.9608 48.9138C86.612 52.6904 93.996 59.1818 100.634 66.3445C110.941 77.4672 120.687 91.5814 128.229 104.025C135.72 91.5965 145.374 77.4908 155.591 66.3718C162.172 59.2091 169.504 52.708 177.123 48.9236Z" fill="white" stroke="#84DCFF" stroke-width="18" stroke-linejoin="round"/>
</g>
</g>
<defs>
<filter id="filter0_d_164_128" x="-1.98828" y="17.9893" width="260.015" height="235.254" filterUnits="userSpaceOnUse" color-interpolation-filters="sRGB">
<feFlood flood-opacity="0" result="BackgroundImageFix"/>
<feColorMatrix in="SourceAlpha" type="matrix" values="0 0 0 0 0 0 0 0 0 0 0 0 0 0 0 0 0 0 127 0" result="hardAlpha"/>
<feOffset dy="8"/>
<feGaussianBlur stdDeviation="8"/>
<feComposite in2="hardAlpha" operator="out"/>
<feColorMatrix type="matrix" values="0 0 0 0 0 0 0 0 0 0 0 0 0 0 0 0 0 0 0.25 0"/>
<feBlend mode="normal" in2="BackgroundImageFix" result="effect1_dropShadow_164_128"/>
<feBlend mode="normal" in="SourceGraphic" in2="effect1_dropShadow_164_128" result="shape"/>
</filter>
<clipPath id="clip0_164_128">
<rect width="256" height="256" fill="white"/>
</clipPath>
</defs>
</svg>
