<svg width="256" height="256" viewBox="0 0 256 256" fill="none" xmlns="http://www.w3.org/2000/svg">
<g clip-path="url(#clip0_164_170)">
<g filter="url(#filter0_d_164_170)">
<path d="M127.5 27C183.005 27 228 71.9954 228 127.5C228 183.005 183.005 228 127.5 228C71.9954 228 27 183.005 27 127.5C27 71.9954 71.9954 27 127.5 27Z" fill="white" stroke="white" stroke-width="18"/>
<circle cx="127.5" cy="127.5" r="90.013" fill="white" stroke="#606060" stroke-width="18"/>
<path d="M103.904 186.052C100.263 188.091 90.8831 188.324 85.9892 183.43C79.8718 177.313 79.8718 165.515 67.2001 163.33" stroke="#606060" stroke-width="18" stroke-linecap="round" stroke-linejoin="round"/>
<path d="M177.313 127.5C177.313 149.219 155.011 166.826 127.5 166.826C120.659 166.826 114.14 165.737 108.206 163.767C90.2766 157.815 77.687 143.818 77.687 127.5C77.687 119.789 80.4981 112.596 85.3553 106.526C91.284 99.1165 100.261 93.3789 110.896 90.4115C116.089 88.9623 121.678 88.1738 127.5 88.1738C155.011 88.1738 177.313 105.781 177.313 127.5Z" fill="#D9D9D9"/>
<path d="M110.896 90.4115C100.261 93.3789 91.284 99.1165 85.3553 106.526C80.4981 112.596 77.687 119.789 77.687 127.5C77.687 143.818 90.2766 157.815 108.206 163.767M85.3553 106.526C81.1823 104.341 77.2495 96.9 76.8131 89.4845C76.376 82.0563 77.6871 75.939 79.8718 74.1911C82.0566 72.4433 86.0716 71.8291 94.2913 75.939C101.283 79.4346 104.778 82.0564 110.896 90.4115M110.896 90.4115C116.089 88.9623 121.678 88.1738 127.5 88.1738C155.011 88.1738 177.313 105.781 177.313 127.5C177.313 149.219 155.011 166.826 127.5 166.826C120.659 166.826 114.14 165.737 108.206 163.767M108.206 163.767C106.918 165.369 104.341 170.759 104.341 179.498C104.341 188.237 104.341 205.861 104.341 213.58" stroke="#606060" stroke-width="18"/>
<path d="M77.6031 127.5C77.6031 149.219 99.9052 166.826 127.416 166.826C134.257 166.826 140.776 165.737 146.71 163.767C164.64 157.815 177.229 143.818 177.229 127.5C177.229 119.789 174.418 112.596 169.561 106.526C163.632 99.1165 154.655 93.3789 144.021 90.4115C138.827 88.9623 133.238 88.1738 127.416 88.1738C99.9052 88.1738 77.6031 105.781 77.6031 127.5Z" fill="white"/>
<path d="M144.021 90.4115C154.655 93.3789 163.632 99.1165 169.561 106.526C174.418 112.596 177.229 119.789 177.229 127.5C177.229 143.818 164.64 157.815 146.71 163.767M169.561 106.526C173.734 104.341 177.667 96.9 178.103 89.4845C178.54 82.0563 177.229 75.939 175.044 74.1911C172.86 72.4433 168.845 71.8291 160.625 75.939C153.634 79.4346 150.138 82.0564 144.021 90.4115M144.021 90.4115C138.827 88.9623 133.238 88.1738 127.416 88.1738C99.9052 88.1738 77.6031 105.781 77.6031 127.5C77.6031 149.219 99.9052 166.826 127.416 166.826C134.257 166.826 140.776 165.737 146.71 163.767M146.71 163.767C147.999 165.369 150.575 170.759 150.575 179.498C150.575 188.237 150.575 205.861 150.575 213.58" stroke="#606060" stroke-width="18"/>
</g>
</g>
<defs>
<filter id="filter0_d_164_170" x="2" y="10" width="251" height="251" filterUnits="userSpaceOnUse" color-interpolation-filters="sRGB">
<feFlood flood-opacity="0" result="BackgroundImageFix"/>
<feColorMatrix in="SourceAlpha" type="matrix" values="0 0 0 0 0 0 0 0 0 0 0 0 0 0 0 0 0 0 127 0" result="hardAlpha"/>
<feOffset dy="8"/>
<feGaussianBlur stdDeviation="8"/>
<feComposite in2="hardAlpha" operator="out"/>
<feColorMatrix type="matrix" values="0 0 0 0 0 0 0 0 0 0 0 0 0 0 0 0 0 0 0.25 0"/>
<feBlend mode="normal" in2="BackgroundImageFix" result="effect1_dropShadow_164_170"/>
<feBlend mode="normal" in="SourceGraphic" in2="effect1_dropShadow_164_170" result="shape"/>
</filter>
<clipPath id="clip0_164_170">
<rect width="256" height="256" fill="white"/>
</clipPath>
</defs>
</svg>
