<svg width="256" height="256" viewBox="0 0 256 256" fill="none" xmlns="http://www.w3.org/2000/svg">
<g clip-path="url(#clip0_164_152)">
<g filter="url(#filter0_d_164_152)">
<path d="M196.459 32C198.907 32 201.303 32.6676 203.399 33.9238C208.64 37.0641 216.158 42.6815 222.552 49.9023C228.672 56.8145 235.616 67.2939 235.616 79.9229C235.616 89.5232 234.038 98.7 228.959 105.932C226.84 108.948 224.333 111.311 221.588 113.123V175.997C221.588 202.793 200.402 224.793 173.93 224.793H83.8115C57.3392 224.793 36.1534 202.793 36.1533 175.997V114.396C32.5932 112.478 29.3251 109.73 26.6572 105.932C21.5782 98.7 20 89.5232 20 79.9229C20.0001 67.2939 26.9441 56.8145 33.0645 49.9023C39.4582 42.6815 46.9767 37.0641 52.2168 33.9238L52.3164 33.8652L52.5381 33.7383C52.5629 33.7241 52.5883 33.7101 52.6133 33.6963C54.6114 32.5884 56.8601 32.0001 59.1562 32H196.459Z" fill="white" stroke="white" stroke-width="12" stroke-linecap="round" stroke-linejoin="round"/>
<rect x="49.8048" y="72.0625" width="158.132" height="138.87" rx="40" fill="white" stroke="#FF6A4F" stroke-width="18"/>
<path d="M59.1567 45.8606H128.446H196.459C204.961 50.9554 221.964 64.9007 221.964 79.9231C221.964 96.666 216.22 102.994 206.236 104.169C205.023 104.312 203.747 104.378 202.411 104.378C192.549 104.378 186.116 93.3152 184.132 87.7837C183.848 93.3152 179.626 104.378 165.003 104.378C150.38 104.378 146.158 91.8596 145.874 85.6002C145.732 91.8596 141.793 104.378 127.17 104.378C112.547 104.378 109.884 91.8596 109.742 85.6002C109.459 91.8596 105.236 104.378 90.6131 104.378C75.9901 104.378 71.7676 93.3152 71.4842 87.7837C69.5005 93.3152 63.0675 104.378 53.2055 104.378C51.8695 104.378 50.5933 104.312 49.3798 104.169C39.3965 102.994 33.6516 96.666 33.6516 79.9231C33.6516 64.9007 50.655 50.9554 59.1567 45.8606Z" fill="white" stroke="#FF6A4F" stroke-width="18" stroke-linecap="round" stroke-linejoin="round"/>
<path d="M128.02 130.092H112.982C110.592 126.944 106.156 121.846 96.9892 121.846C85.5311 121.846 80.7554 139.948 77.1747 153.231C73.594 166.514 72.5466 183.067 80.3975 187.938C90.0651 193.937 103.968 185.368 107.191 178.94H128.02" stroke="#FF6A4F" stroke-width="18" stroke-linecap="round" stroke-linejoin="round"/>
<path d="M128.021 130.092H143.059C145.449 126.944 149.885 121.846 159.052 121.846C170.51 121.846 175.286 139.948 178.866 153.231C182.447 166.514 183.494 183.067 175.644 187.938C165.976 193.937 152.073 185.368 148.85 178.94H128.021" stroke="#FF6A4F" stroke-width="18" stroke-linecap="round" stroke-linejoin="round"/>
<path d="M128.021 161.149V148.048L119.519 155.755" stroke="#FF6A4F" stroke-width="18" stroke-linecap="round" stroke-linejoin="round"/>
<path d="M128.021 161.149V148.048L136.522 155.755" stroke="#FF6A4F" stroke-width="18" stroke-linecap="round" stroke-linejoin="round"/>
</g>
</g>
<defs>
<filter id="filter0_d_164_152" x="-2" y="18" width="259.616" height="236.793" filterUnits="userSpaceOnUse" color-interpolation-filters="sRGB">
<feFlood flood-opacity="0" result="BackgroundImageFix"/>
<feColorMatrix in="SourceAlpha" type="matrix" values="0 0 0 0 0 0 0 0 0 0 0 0 0 0 0 0 0 0 127 0" result="hardAlpha"/>
<feOffset dy="8"/>
<feGaussianBlur stdDeviation="8"/>
<feComposite in2="hardAlpha" operator="out"/>
<feColorMatrix type="matrix" values="0 0 0 0 0 0 0 0 0 0 0 0 0 0 0 0 0 0 0.25 0"/>
<feBlend mode="normal" in2="BackgroundImageFix" result="effect1_dropShadow_164_152"/>
<feBlend mode="normal" in="SourceGraphic" in2="effect1_dropShadow_164_152" result="shape"/>
</filter>
<clipPath id="clip0_164_152">
<rect width="256" height="256" fill="white"/>
</clipPath>
</defs>
</svg>
