<svg width="256" height="256" viewBox="0 0 256 256" fill="none" xmlns="http://www.w3.org/2000/svg">
<g clip-path="url(#clip0_164_140)">
<g filter="url(#filter0_d_164_140)">
<path d="M143.174 35.4346C165.741 30.263 183.479 39.9235 193.99 49.5654L201.766 47.4141L201.932 47.3691L202.47 47.2314L202.635 47.1904C221.495 42.7321 236.912 62.9817 227.151 80.0625L215.203 100.97C214.091 123.719 204.046 167.112 168.656 197.808C149.087 214.781 122.498 220.99 99.3486 221.305C76.6052 221.614 52.3293 216.277 36.9209 204.614C28.7774 198.451 26.2419 187.969 29.9229 179.111L30.085 178.731C33.554 170.805 41.2704 165.86 49.6484 165.555C52.5636 165.449 55.5879 165.26 58.5332 164.962C56.452 163.98 54.2562 162.848 51.9561 161.533C44.4063 157.219 38.8718 150.792 35.1143 145.341C31.2339 139.711 28.3168 133.76 26.4434 128.813C22.5563 118.551 26.9521 108.796 33.7432 103.703C35.9486 102.049 38.3971 100.844 40.959 100.092C36.6634 88.5376 37.0349 76.7678 39.0439 67.6006C39.0574 67.5393 39.0712 67.478 39.0859 67.417L39.2207 66.8594L39.2656 66.6826C41.8158 56.9776 49.9964 51.3582 58.1211 50.4834C65.5221 49.6867 73.1516 52.6374 78.1123 58.8057L78.584 59.4131L78.6729 59.5332L78.957 59.9248L78.9951 59.9775L79.5557 60.7627C82.0326 64.1454 86.1828 68.6602 93.6621 73.6465C95.8699 75.1183 98.8079 75.8251 102.633 75.5635C103.752 75.4869 104.863 75.3277 105.936 75.1143C107.181 70.9068 109.001 65.8226 111.689 60.7627C116.881 50.9928 126.465 39.2636 143.174 35.4346Z" fill="white" stroke="white" stroke-width="18" stroke-linejoin="round"/>
<path d="M145.413 45.2041C166.665 40.334 182.833 51.5377 190.993 60.7959L202.898 57.5L203.422 57.3652C214.372 54.7768 223.323 66.559 217.655 76.4785L205.273 98.1455C204.86 118.35 196.019 160.806 162.089 190.235C145.213 204.873 121.768 210.786 100.321 211.263C79.0199 211.736 57.5847 206.886 44.3483 197.625C39.5559 194.272 37.9341 188.428 39.9752 183.356C41.846 178.708 46.3281 175.738 51.3073 175.519L53.2662 175.421C57.8733 175.163 62.7018 174.69 67.1168 173.892C72.3404 172.946 76.1941 171.678 78.4401 170.314C82.5464 167.821 83.8743 166.098 84.2526 165.339C84.3901 165.063 84.4124 164.904 84.4117 164.736C84.4108 164.518 84.3609 163.994 83.9762 163.06C83.9376 162.966 83.9037 162.893 83.8766 162.838C83.5047 162.658 82.6655 162.364 80.3824 161.801C75.3874 160.568 67.4988 158.87 56.9293 152.83C51.5042 149.73 47.1873 145.015 43.9537 140.488C40.6683 135.889 38.1224 130.951 36.4078 126.764C34.0577 121.024 36.3365 115.513 40.1862 112.486C43.5382 109.851 48.033 108.965 52.2076 110.029L52.611 110.139L53.317 110.332C55.0158 110.776 57.1276 111.176 59.6637 111.409C58.7737 110.367 57.8489 109.254 56.8912 108.065C47.4379 96.33 46.4694 82.3113 48.4967 71.4131L48.6119 70.8613C49.9018 65.2412 54.4983 61.9193 59.2311 61.3594C63.6555 60.8359 68.272 62.6233 71.2438 66.3906L71.526 66.7617L72.1432 67.583C75.341 71.7464 80.2256 76.7337 88.1031 81.9854C96.2505 87.4168 107.053 85.8865 114.172 83.1484C115.242 78.6435 117.152 71.6919 120.782 65.0146C125.233 56.8257 132.809 48.0924 145.413 45.2041Z" fill="white" stroke="#4378FF" stroke-width="18" stroke-linejoin="round"/>
<path d="M142.829 74.8577L167.886 99.9144" stroke="#4378FF" stroke-width="18" stroke-linecap="round" stroke-linejoin="round"/>
<path d="M142.829 99.9146L167.886 74.8578" stroke="#4378FF" stroke-width="18" stroke-linecap="round" stroke-linejoin="round"/>
</g>
</g>
<defs>
<filter id="filter0_d_164_140" x="-0.0246582" y="16.9822" width="255.227" height="237.335" filterUnits="userSpaceOnUse" color-interpolation-filters="sRGB">
<feFlood flood-opacity="0" result="BackgroundImageFix"/>
<feColorMatrix in="SourceAlpha" type="matrix" values="0 0 0 0 0 0 0 0 0 0 0 0 0 0 0 0 0 0 127 0" result="hardAlpha"/>
<feOffset dy="8"/>
<feGaussianBlur stdDeviation="8"/>
<feComposite in2="hardAlpha" operator="out"/>
<feColorMatrix type="matrix" values="0 0 0 0 0 0 0 0 0 0 0 0 0 0 0 0 0 0 0.25 0"/>
<feBlend mode="normal" in2="BackgroundImageFix" result="effect1_dropShadow_164_140"/>
<feBlend mode="normal" in="SourceGraphic" in2="effect1_dropShadow_164_140" result="shape"/>
</filter>
<clipPath id="clip0_164_140">
<rect width="256" height="256" fill="white"/>
</clipPath>
</defs>
</svg>
